<svg xmlns="http://www.w3.org/2000/svg" viewBox="0 0 150 150">
  <rect
      ry="512"
      y="26.066658"
      x="0"
      height="1024"
      width="1024"
      id="rect5253"
      style="opacity:1;fill:#ffffff;fill-opacity:1;stroke:none;stroke-width:2;stroke-linecap:round;stroke-linejoin:round;stroke-miterlimit:4;stroke-dasharray:none;stroke-dashoffset:0;stroke-opacity:1;paint-order:stroke markers fill" />
  <path
      style="fill:#a0a0a0;fill-opacity:1;stroke:none;stroke-width:2.08490729"
      d="m 304.61703,297.24185 -19.45414,0.63455 -5.22283,20.4846 -0.0163,3.04802 1.90365,16.77853 -26.98378,5.17765 -4.44367,-16.2868 -1.14074,-2.82746 -12.43972,-17.09491 -18.30978,6.61487 1.36492,21.09928 0.92922,2.89976 6.99091,15.36842 -24.0605,13.2641 -9.26155,-14.11559 -1.95608,-2.33391 -17.11118,-12.41984 -15.37023,11.95161 7.81528,19.64395 1.78072,2.47493 11.40022,12.45239 -18.78524,20.05252 -13.17008,-10.56681 -2.58521,-1.61258 -20.11039,-6.52088 -10.92475,16.10964 13.50454,16.26872 2.45865,1.80423 14.68868,8.31786 -11.66777,24.87764 -15.78966,-5.97851 -2.95762,-0.73761 -21.144459,0.0145 -5.409048,18.69846 17.872277,11.29898 2.89435,0.95454 16.54351,3.37523 -3.415,27.264 -16.8617,-0.80811 -3.04259,0.21513 -20.103145,6.54437 0.636359,19.45594 20.486406,5.22104 3.04802,0.0181 16.77673,-1.90366 5.17945,26.98197 -16.28861,4.44547 -2.82565,1.14075 -17.096718,12.43973 6.616683,18.30977 21.097455,-1.36672 2.90159,-0.92923 15.36661,-6.99091 13.2641,24.06051 -14.11559,9.26155 -2.33392,1.95788 -12.41803,17.11118 11.9498,15.36842 19.64576,-7.81527 2.47313,-1.78073 12.45419,-11.39841 18.1326,16.98644 17.23953,-15.28527 a 156.36805,156.36805 0 0 1 -53.41073,-166.13661 156.36805,156.36805 0 0 1 193.66092,-106.76001 156.36805,156.36805 0 0 1 9.47488,3.26134 l 22.29425,-15.10267 -11.77806,-5.52475 5.98032,-15.79146 0.73579,-2.95762 -0.0145,-21.13904 -18.69846,-5.40905 -11.29718,17.86686 -0.95634,2.89435 -3.37342,16.54532 -27.2658,-3.415 0.80811,-16.86351 -0.21514,-3.03716 z m 164.14437,77.00662 -19.64576,7.81528 -2.47313,1.78073 -12.45418,11.39841 -18.13442,-16.98824 -17.23773,15.28706 A 156.36805,156.36805 0 0 1 452.22693,559.68013 156.36805,156.36805 0 0 1 258.566,666.43834 156.36805,156.36805 0 0 1 249.08932,663.177 l -22.29245,15.10267 11.77806,5.52475 -5.98033,15.79145 -0.73578,2.95763 0.0127,21.14446 18.69846,5.40724 11.29898,-17.87047 0.95634,-2.89435 3.37342,-16.54352 27.2658,3.4132 -0.8081,16.8635 0.21333,3.04079 6.54617,20.10134 19.45414,-0.63455 5.22284,-20.4846 0.0163,-3.04802 -1.90366,-16.77853 26.98378,-5.17765 4.44367,16.2868 1.14074,2.82746 12.43972,17.09491 18.30617,-6.61669 -1.3613,-21.09746 -0.92923,-2.89976 -6.99272,-15.36842 24.06232,-13.2641 9.26154,14.11559 1.95609,2.33391 17.11117,12.41984 15.37023,-11.95161 -7.81528,-19.64396 -1.78071,-2.47492 -11.40023,-12.45239 18.78524,-20.05252 13.17009,10.5668 2.58521,1.61259 20.11038,6.52087 10.92114,-16.11144 -13.50455,-16.26692 -2.45503,-1.80422 -14.68868,-8.31786 11.66778,-24.87765 15.78965,5.97852 2.95762,0.7376 21.14085,-0.0145 5.40905,-18.69846 -17.86867,-11.29898 -2.89434,-0.95454 -16.54352,-3.37523 3.415,-27.264 16.8617,0.80811 3.03897,-0.21513 20.10315,-6.54618 -0.63274,-19.45414 -20.48641,-5.22103 -3.04801,-0.0181 -16.77673,1.90366 -5.17946,-26.98197 16.28862,-4.44548 2.82565,-1.14074 17.0949,-12.43973 -6.61487,-18.30977 -21.09746,1.36672 -2.90158,0.92923 -15.36662,6.99091 -13.26409,-24.06051 14.11559,-9.26155 2.33391,-1.95788 12.41442,-17.11298 z"
      id="path5154" />
  <path
      id="path4518"
      d="m 442.68644,325.00903 -92.94041,62.96589 -149.46126,101.25873 -5.35511,3.62677 126.50021,-112.17424 c -18.31965,-2.63232 -36.98277,-1.52412 -54.86219,3.25764 -73.06006,19.57605 -116.41716,94.67275 -96.84047,167.73264 5.23579,19.33662 14.65003,37.28913 27.57877,52.59161 l 68.89684,-78.44217 -71.62189,19.19103 z m -35.96489,103.18368 -68.89684,78.44216 71.62189,-19.19102 -248.10551,220.00788 92.93853,-62.96537 89.13115,-60.38419 65.68522,-44.50131 -126.49695,112.17134 c 18.31904,2.63291 36.98167,1.52553 54.8608,-3.25526 73.05905,-19.57689 116.41509,-94.67296 96.8386,-167.73212 -5.23517,-19.33663 -14.64876,-37.28931 -27.57689,-52.59211 z"
      style="opacity:1;fill:#0063d9;fill-opacity:1;stroke:none;stroke-width:2;stroke-linecap:round;stroke-linejoin:round;stroke-miterlimit:4;stroke-dasharray:none;stroke-dashoffset:0;stroke-opacity:1;paint-order:stroke markers fill" />
</svg>
